{
.appVersion = "1230";
DisplayStrings = (
"a/bi  ",
"/bi",
"/bi",
"a/bi  /de  a/ki \012\012\012 ",
"",
""
);
customParameters = (
{
name = Axes;
value = (
{
Name = Weight;
Tag = wght;
}
);
}
);
date = "2019-02-12 19:30:29 +0000";
familyName = Afaka;
fontMaster = (
{
ascender = 760;
capHeight = 760;
descender = -254;
guideLines = (
{
locked = 1;
position = "{-330, -170}";
},
{
locked = 1;
position = "{-330, 872}";
},
{
locked = 1;
position = "{-330, 511}";
},
{
angle = 90;
position = "{-247, 617}";
},
{
locked = 1;
position = "{-388, -12}";
}
);
id = "DD177FA3-7F9B-4B3E-90D2-39BD46FC1B08";
weightValue = 0;
xHeight = 582;
}
);
glyphs = (
{
glyphname = a;
lastChange = "2019-05-01 01:06:33 +0000";
layers = (
{
layerId = "DD177FA3-7F9B-4B3E-90D2-39BD46FC1B08";
paths = (
{
closed = 1;
nodes = (
"661 73 LINE",
"647 60 OFFCURVE",
"630 53 OFFCURVE",
"609 53 CURVE SMOOTH",
"548 53 OFFCURVE",
"516 80 OFFCURVE",
"516 163 CURVE",
"516 617 LINE",
"442 617 LINE",
"442 114 LINE",
"442 41 OFFCURVE",
"505 -12 OFFCURVE",
"594 -12 CURVE SMOOTH",
"635 -12 OFFCURVE",
"670 -1 OFFCURVE",
"697 18 CURVE"
);
},
{
closed = 1;
nodes = (
"420 -12 OFFCURVE",
"474 57 OFFCURVE",
"489 110 CURVE",
"467 160 LINE",
"447 89 OFFCURVE",
"367 54 OFFCURVE",
"305 54 CURVE SMOOTH",
"200 54 OFFCURVE",
"123 140 OFFCURVE",
"123 271 CURVE SMOOTH",
"123 405 OFFCURVE",
"195 493 OFFCURVE",
"316 493 CURVE",
"383 493 OFFCURVE",
"425 469 OFFCURVE",
"464 429 CURVE",
"471 493 LINE",
"441 527 OFFCURVE",
"383 558 OFFCURVE",
"312 558 CURVE SMOOTH",
"155 558 OFFCURVE",
"45 431 OFFCURVE",
"45 273 CURVE SMOOTH",
"45 110 OFFCURVE",
"148 -12 OFFCURVE",
"296 -12 CURVE SMOOTH"
);
},
{
closed = 1;
nodes = (
"697 18 LINE",
"734 46 OFFCURVE",
"759 90 OFFCURVE",
"771 149 CURVE",
"708 172 LINE",
"700 129 OFFCURVE",
"685 93 OFFCURVE",
"661 73 CURVE"
);
}
);
width = 759;
}
);
unicode = 0061;
},
{
glyphname = e;
lastChange = "2019-05-01 01:06:33 +0000";
layers = (
{
layerId = "DD177FA3-7F9B-4B3E-90D2-39BD46FC1B08";
paths = (
{
closed = 1;
nodes = (
"512 393 OFFCURVE",
"615 479 OFFCURVE",
"635 729 CURVE",
"601 752 LINE",
"557 537 OFFCURVE",
"479 470 OFFCURVE",
"390 470 CURVE SMOOTH",
"301 470 OFFCURVE",
"223 529 OFFCURVE",
"174 752 CURVE",
"140 729 LINE",
"160 479 OFFCURVE",
"266 393 OFFCURVE",
"389 393 CURVE SMOOTH"
);
},
{
closed = 1;
nodes = (
"174 0 LINE",
"174 760 LINE",
"100 760 LINE",
"100 0 LINE"
);
},
{
closed = 1;
nodes = (
"675 0 LINE",
"675 760 LINE",
"601 760 LINE",
"601 0 LINE"
);
}
);
width = 775;
}
);
unicode = 0065;
},
{
glyphname = o;
lastChange = "2019-05-01 01:06:33 +0000";
layers = (
{
layerId = "DD177FA3-7F9B-4B3E-90D2-39BD46FC1B08";
paths = (
{
closed = 1;
nodes = (
"456 -12 OFFCURVE",
"586 97 OFFCURVE",
"586 268 CURVE SMOOTH",
"586 430 OFFCURVE",
"466 550 OFFCURVE",
"306 550 CURVE SMOOTH",
"147 550 OFFCURVE",
"26 433 OFFCURVE",
"26 268 CURVE SMOOTH",
"26 97 OFFCURVE",
"156 -12 OFFCURVE",
"306 -12 CURVE SMOOTH"
);
},
{
closed = 1;
nodes = (
"189 57 OFFCURVE",
"108 148 OFFCURVE",
"108 271 CURVE SMOOTH",
"108 397 OFFCURVE",
"186 482 OFFCURVE",
"306 481 CURVE SMOOTH",
"426 480 OFFCURVE",
"504 397 OFFCURVE",
"504 271 CURVE SMOOTH",
"504 148 OFFCURVE",
"423 57 OFFCURVE",
"306 57 CURVE SMOOTH"
);
}
);
width = 612;
}
);
unicode = 006F;
},
{
glyphname = pi;
lastChange = "2019-05-01 01:06:33 +0000";
layers = (
{
layerId = "DD177FA3-7F9B-4B3E-90D2-39BD46FC1B08";
paths = (
{
closed = 1;
nodes = (
"383 272 OFFCURVE",
"562 403 OFFCURVE",
"514 761 CURVE",
"438 761 LINE",
"486 442 OFFCURVE",
"344 337 OFFCURVE",
"143 337 CURVE",
"142 272 LINE"
);
},
{
closed = 1;
nodes = (
"174 -170 LINE",
"174 760 LINE",
"100 760 LINE",
"100 -170 LINE"
);
}
);
width = 622;
}
);
unicode = 03C0;
},
{
glyphname = "pe-hb";
lastChange = "2019-05-01 01:10:23 +0000";
layers = (
{
layerId = "DD177FA3-7F9B-4B3E-90D2-39BD46FC1B08";
paths = (
{
closed = 1;
nodes = (
"174 -170 LINE",
"174 872 LINE",
"100 872 LINE",
"100 -170 LINE"
);
},
{
closed = 1;
nodes = (
"139 527 LINE",
"465 702 LINE",
"444 762 LINE",
"120 588 LINE"
);
},
{
closed = 1;
nodes = (
"139 259 LINE",
"513 456 LINE",
"492 516 LINE",
"120 320 LINE"
);
}
);
width = 600;
}
);
unicode = 05E4;
},
{
glyphname = comma;
lastChange = "2019-05-01 01:06:33 +0000";
layers = (
{
layerId = "DD177FA3-7F9B-4B3E-90D2-39BD46FC1B08";
paths = (
{
closed = 1;
nodes = (
"65 -6 OFFCURVE",
"91 -35 OFFCURVE",
"128 -35 CURVE SMOOTH",
"144 -35 LINE",
"144 -69 OFFCURVE",
"107 -112 OFFCURVE",
"66 -126 CURVE",
"84 -149 LINE",
"176 -106 OFFCURVE",
"209 -60 OFFCURVE",
"209 18 CURVE SMOOTH",
"209 67 OFFCURVE",
"181 97 OFFCURVE",
"139 97 CURVE SMOOTH",
"97 97 OFFCURVE",
"65 67 OFFCURVE",
"65 30 CURVE SMOOTH"
);
}
);
userData = {
com.schriftgestaltung.Glyphs.lastChange = "2018-11-11 03:57:52 +0000";
com.typemytype.robofont.Image.Brightness = 0;
com.typemytype.robofont.Image.Contrast = 1;
com.typemytype.robofont.Image.Saturation = 1;
com.typemytype.robofont.Image.Sharpness = 0.4;
};
width = 244;
}
);
unicode = 002C;
},
{
glyphname = hyphen;
lastChange = "2019-05-01 01:06:33 +0000";
layers = (
{
layerId = "DD177FA3-7F9B-4B3E-90D2-39BD46FC1B08";
paths = (
{
closed = 1;
nodes = (
"403 270 LINE",
"403 328 LINE",
"70 328 LINE",
"70 270 LINE"
);
}
);
userData = {
com.schriftgestaltung.Glyphs.lastChange = "2018-11-02 04:03:13 +0000";
};
width = 473;
}
);
unicode = 002D;
},
{
glyphname = se;
lastChange = "2019-05-01 01:09:19 +0000";
layers = (
{
layerId = "DD177FA3-7F9B-4B3E-90D2-39BD46FC1B08";
paths = (
{
closed = 1;
nodes = (
"888 711 OFFCURVE",
"715 820 OFFCURVE",
"395 760 CURVE",
"395 687 LINE",
"645 739 OFFCURVE",
"806 658 OFFCURVE",
"806 501 CURVE SMOOTH",
"806 344 OFFCURVE",
"673 255 OFFCURVE",
"410 304 CURVE",
"410 231 LINE",
"720 176 OFFCURVE",
"888 294 OFFCURVE",
"888 501 CURVE SMOOTH"
);
},
{
closed = 1;
nodes = (
"100 44 OFFCURVE",
"273 -57 OFFCURVE",
"593 3 CURVE",
"593 76 LINE",
"343 24 OFFCURVE",
"182 105 OFFCURVE",
"182 262 CURVE SMOOTH",
"182 419 OFFCURVE",
"315 508 OFFCURVE",
"578 459 CURVE",
"578 532 LINE",
"268 587 OFFCURVE",
"100 465 OFFCURVE",
"100 258 CURVE SMOOTH"
);
}
);
width = 988;
}
);
},
{
glyphname = sa;
lastChange = "2019-05-01 01:09:36 +0000";
layers = (
{
layerId = "DD177FA3-7F9B-4B3E-90D2-39BD46FC1B08";
paths = (
{
closed = 1;
nodes = (
"413 460 OFFCURVE",
"510 542 OFFCURVE",
"510 671 CURVE SMOOTH",
"510 793 OFFCURVE",
"420 884 OFFCURVE",
"299 884 CURVE SMOOTH",
"179 884 OFFCURVE",
"88 794 OFFCURVE",
"88 671 CURVE SMOOTH",
"88 542 OFFCURVE",
"185 460 OFFCURVE",
"299 460 CURVE SMOOTH"
);
},
{
closed = 1;
nodes = (
"220 529 OFFCURVE",
"166 590 OFFCURVE",
"166 674 CURVE SMOOTH",
"166 758 OFFCURVE",
"217 817 OFFCURVE",
"299 815 CURVE SMOOTH",
"381 813 OFFCURVE",
"431 758 OFFCURVE",
"431 674 CURVE SMOOTH",
"431 590 OFFCURVE",
"377 529 OFFCURVE",
"299 529 CURVE SMOOTH"
);
},
{
closed = 1;
nodes = (
"263 -170 LINE",
"337 -170 LINE",
"337 501 LINE",
"263 501 LINE"
);
}
);
width = 600;
}
);
},
{
glyphname = po;
lastChange = "2019-05-01 01:10:23 +0000";
layers = (
{
guideLines = (
{
angle = 90;
position = "{394, 54}";
}
);
layerId = "DD177FA3-7F9B-4B3E-90D2-39BD46FC1B08";
paths = (
{
closed = 1;
nodes = (
"100 318 LINE",
"100 89 OFFCURVE",
"230 -13 OFFCURVE",
"394 -13 CURVE SMOOTH",
"558 -13 OFFCURVE",
"674 89 OFFCURVE",
"674 318 CURVE",
"674 377 LINE",
"600 377 LINE",
"600 327 LINE",
"600 127 OFFCURVE",
"514 55 OFFCURVE",
"394 55 CURVE SMOOTH",
"274 55 OFFCURVE",
"174 138 OFFCURVE",
"174 327 CURVE",
"174 377 LINE",
"100 377 LINE"
);
},
{
closed = 1;
nodes = (
"104 313 LINE",
"672 313 LINE",
"672 377 LINE",
"104 377 LINE"
);
},
{
closed = 1;
nodes = (
"431 330 LINE",
"431 760 LINE",
"357 760 LINE",
"357 330 LINE"
);
}
);
width = 774;
}
);
},
{
glyphname = no;
lastChange = "2019-05-01 01:10:23 +0000";
layers = (
{
layerId = "DD177FA3-7F9B-4B3E-90D2-39BD46FC1B08";
paths = (
{
closed = 1;
nodes = (
"409 114 OFFCURVE",
"503 194 OFFCURVE",
"503 318 CURVE SMOOTH",
"503 436 OFFCURVE",
"416 524 OFFCURVE",
"299 524 CURVE SMOOTH",
"183 524 OFFCURVE",
"102 437 OFFCURVE",
"102 318 CURVE SMOOTH",
"102 194 OFFCURVE",
"189 114 OFFCURVE",
"299 114 CURVE SMOOTH"
);
},
{
closed = 1;
nodes = (
"225 184 OFFCURVE",
"175 241 OFFCURVE",
"175 321 CURVE SMOOTH",
"175 401 OFFCURVE",
"221 456 OFFCURVE",
"299 454 CURVE SMOOTH",
"377 452 OFFCURVE",
"425 401 OFFCURVE",
"425 321 CURVE SMOOTH",
"425 241 OFFCURVE",
"373 184 OFFCURVE",
"299 184 CURVE SMOOTH"
);
},
{
closed = 1;
nodes = (
"100 -170 LINE",
"174 -170 LINE",
"174 760 LINE",
"100 760 LINE"
);
}
);
width = 603;
}
);
},
{
glyphname = ne;
lastChange = "2019-05-01 01:10:23 +0000";
layers = (
{
layerId = "DD177FA3-7F9B-4B3E-90D2-39BD46FC1B08";
paths = (
{
closed = 1;
nodes = (
"337 582 LINE",
"337 0 LINE",
"411 0 LINE",
"411 582 LINE"
);
},
{
closed = 1;
nodes = (
"100 273 LINE",
"651 273 LINE",
"651 339 LINE",
"100 339 LINE"
);
}
);
width = 751;
}
);
},
{
glyphname = mo;
lastChange = "2019-05-01 01:10:23 +0000";
layers = (
{
layerId = "DD177FA3-7F9B-4B3E-90D2-39BD46FC1B08";
paths = (
{
closed = 1;
nodes = (
"881 -12 OFFCURVE",
"1025 90 OFFCURVE",
"1025 290 CURVE SMOOTH",
"1025 482 OFFCURVE",
"892 593 OFFCURVE",
"746 593 CURVE SMOOTH",
"577 593 OFFCURVE",
"454 470 OFFCURVE",
"454 295 CURVE SMOOTH",
"454 103 OFFCURVE",
"575 -12 OFFCURVE",
"739 -12 CURVE SMOOTH"
);
},
{
closed = 1;
nodes = (
"605 61 OFFCURVE",
"530 165 OFFCURVE",
"530 294 CURVE SMOOTH",
"530 429 OFFCURVE",
"609 523 OFFCURVE",
"736 523 CURVE SMOOTH",
"860 523 OFFCURVE",
"937 425 OFFCURVE",
"937 291 CURVE SMOOTH",
"937 139 OFFCURVE",
"845 61 OFFCURVE",
"733 61 CURVE SMOOTH"
);
},
{
closed = 1;
nodes = (
"185 493 LINE",
"203 507 OFFCURVE",
"238 519 OFFCURVE",
"273 519 CURVE SMOOTH",
"386 519 OFFCURVE",
"454 444 OFFCURVE",
"454 306 CURVE",
"454 278 LINE",
"454 171 OFFCURVE",
"403 59 OFFCURVE",
"268 59 CURVE SMOOTH",
"188 59 OFFCURVE",
"130 95 OFFCURVE",
"99 177 CURVE",
"50 118 LINE",
"94 25 OFFCURVE",
"167 -12 OFFCURVE",
"268 -12 CURVE SMOOTH",
"442 -12 OFFCURVE",
"528 130 OFFCURVE",
"528 278 CURVE SMOOTH",
"528 306 LINE",
"530 514 OFFCURVE",
"406 592 OFFCURVE",
"290 592 CURVE SMOOTH",
"239 592 OFFCURVE",
"192 577 OFFCURVE",
"161 558 CURVE"
);
}
);
width = 1125;
}
);
},
{
glyphname = ma;
lastChange = "2019-05-01 01:10:23 +0000";
layers = (
{
layerId = "DD177FA3-7F9B-4B3E-90D2-39BD46FC1B08";
paths = (
{
closed = 1;
nodes = (
"100 318 LINE",
"100 101 OFFCURVE",
"230 -13 OFFCURVE",
"392 -13 CURVE SMOOTH",
"556 -13 OFFCURVE",
"674 101 OFFCURVE",
"674 318 CURVE",
"674 760 LINE",
"600 760 LINE",
"600 327 LINE",
"600 139 OFFCURVE",
"512 59 OFFCURVE",
"395 59 CURVE SMOOTH",
"275 59 OFFCURVE",
"174 150 OFFCURVE",
"174 327 CURVE",
"174 760 LINE",
"100 760 LINE"
);
},
{
closed = 1;
nodes = (
"104 696 LINE",
"672 696 LINE",
"672 760 LINE",
"104 760 LINE"
);
},
{
closed = 1;
nodes = (
"155 448 LINE",
"624 448 LINE",
"624 511 LINE",
"155 511 LINE"
);
}
);
width = 774;
}
);
},
{
glyphname = li;
lastChange = "2019-05-01 01:10:23 +0000";
layers = (
{
layerId = "DD177FA3-7F9B-4B3E-90D2-39BD46FC1B08";
paths = (
{
closed = 1;
nodes = (
"383 505 OFFCURVE",
"304 592 OFFCURVE",
"203 592 CURVE SMOOTH",
"155 592 OFFCURVE",
"114 580 OFFCURVE",
"83 560 CURVE",
"96 489 LINE",
"118 505 OFFCURVE",
"158 519 OFFCURVE",
"205 519 CURVE SMOOTH",
"278 519 OFFCURVE",
"342 439 OFFCURVE",
"342 306 CURVE",
"342 266 LINE",
"342 145 OFFCURVE",
"298 61 OFFCURVE",
"205 61 CURVE SMOOTH",
"156 61 OFFCURVE",
"117 82 OFFCURVE",
"95 99 CURVE",
"80 23 LINE",
"117 -1 OFFCURVE",
"158 -12 OFFCURVE",
"195 -12 CURVE SMOOTH",
"290 -12 OFFCURVE",
"383 57 OFFCURVE",
"383 142 CURVE",
"383 57 OFFCURVE",
"476 -12 OFFCURVE",
"571 -12 CURVE SMOOTH",
"608 -12 OFFCURVE",
"649 -1 OFFCURVE",
"686 23 CURVE",
"671 99 LINE",
"649 82 OFFCURVE",
"610 61 OFFCURVE",
"561 61 CURVE SMOOTH",
"467 61 OFFCURVE",
"422 145 OFFCURVE",
"424 266 CURVE",
"424 306 LINE",
"424 439 OFFCURVE",
"488 519 OFFCURVE",
"561 519 CURVE SMOOTH",
"608 519 OFFCURVE",
"648 505 OFFCURVE",
"670 489 CURVE",
"683 560 LINE",
"652 580 OFFCURVE",
"611 592 OFFCURVE",
"563 592 CURVE SMOOTH",
"462 592 OFFCURVE",
"383 505 OFFCURVE",
"383 422 CURVE"
);
}
);
width = 766;
}
);
},
{
glyphname = la;
lastChange = "2019-05-01 01:10:23 +0000";
layers = (
{
layerId = "DD177FA3-7F9B-4B3E-90D2-39BD46FC1B08";
paths = (
{
closed = 1;
nodes = (
"50 582 LINE",
"50 0 LINE",
"124 0 LINE",
"124 582 LINE"
);
},
{
closed = 1;
nodes = (
"94 275 LINE",
"519 275 LINE",
"519 341 LINE",
"94 341 LINE"
);
}
);
width = 519;
}
);
},
{
glyphname = ki;
lastChange = "2019-05-01 01:06:33 +0000";
layers = (
{
layerId = "DD177FA3-7F9B-4B3E-90D2-39BD46FC1B08";
paths = (
{
closed = 1;
nodes = (
"248 190 LINE",
"322 190 LINE",
"322 483 LINE",
"248 483 LINE"
);
},
{
closed = 1;
nodes = (
"399 459 OFFCURVE",
"496 540 OFFCURVE",
"496 670 CURVE SMOOTH",
"496 792 OFFCURVE",
"406 883 OFFCURVE",
"285 883 CURVE SMOOTH",
"165 883 OFFCURVE",
"74 793 OFFCURVE",
"74 670 CURVE SMOOTH",
"74 541 OFFCURVE",
"171 459 OFFCURVE",
"285 459 CURVE SMOOTH"
);
},
{
closed = 1;
nodes = (
"205 527 OFFCURVE",
"151 588 OFFCURVE",
"151 673 CURVE SMOOTH",
"151 758 OFFCURVE",
"202 817 OFFCURVE",
"285 815 CURVE SMOOTH",
"368 813 OFFCURVE",
"418 758 OFFCURVE",
"418 673 CURVE SMOOTH",
"418 588 OFFCURVE",
"364 527 OFFCURVE",
"285 527 CURVE SMOOTH"
);
},
{
closed = 0;
nodes = (
"322 -158 LINE",
"248 -158 LINE"
);
},
{
closed = 1;
nodes = (
"399 -182 OFFCURVE",
"496 -101 OFFCURVE",
"496 29 CURVE SMOOTH",
"496 151 OFFCURVE",
"406 242 OFFCURVE",
"285 242 CURVE SMOOTH",
"165 242 OFFCURVE",
"74 152 OFFCURVE",
"74 29 CURVE SMOOTH",
"74 -100 OFFCURVE",
"171 -182 OFFCURVE",
"285 -182 CURVE SMOOTH"
);
},
{
closed = 1;
nodes = (
"205 -114 OFFCURVE",
"151 -53 OFFCURVE",
"151 32 CURVE SMOOTH",
"151 117 OFFCURVE",
"202 176 OFFCURVE",
"285 174 CURVE SMOOTH",
"368 172 OFFCURVE",
"418 117 OFFCURVE",
"418 32 CURVE SMOOTH",
"418 -53 OFFCURVE",
"364 -114 OFFCURVE",
"285 -114 CURVE SMOOTH"
);
}
);
width = 570;
}
);
},
{
glyphname = ka;
lastChange = "2019-05-01 01:10:23 +0000";
layers = (
{
layerId = "DD177FA3-7F9B-4B3E-90D2-39BD46FC1B08";
paths = (
{
closed = 1;
nodes = (
"100 370 OFFCURVE",
"302 286 OFFCURVE",
"551 286 CURVE SMOOTH",
"800 286 OFFCURVE",
"1002 389 OFFCURVE",
"1002 579 CURVE SMOOTH",
"1002 691 OFFCURVE",
"912 773 OFFCURVE",
"812 773 CURVE SMOOTH",
"706 773 OFFCURVE",
"629 684 OFFCURVE",
"629 588 CURVE SMOOTH",
"629 472 OFFCURVE",
"724 408 OFFCURVE",
"819 408 CURVE",
"774 374 OFFCURVE",
"670 356 OFFCURVE",
"553 356 CURVE SMOOTH",
"436 356 OFFCURVE",
"328 374 OFFCURVE",
"283 408 CURVE",
"379 408 OFFCURVE",
"473 472 OFFCURVE",
"473 588 CURVE SMOOTH",
"473 684 OFFCURVE",
"396 773 OFFCURVE",
"290 773 CURVE SMOOTH",
"190 773 OFFCURVE",
"100 691 OFFCURVE",
"100 579 CURVE SMOOTH"
);
},
{
closed = 1;
nodes = (
"172 659 OFFCURVE",
"218 711 OFFCURVE",
"287 710 CURVE SMOOTH",
"359 709 OFFCURVE",
"402 656 OFFCURVE",
"402 585 CURVE SMOOTH",
"402 512 OFFCURVE",
"355 455 OFFCURVE",
"286 455 CURVE SMOOTH",
"217 455 OFFCURVE",
"172 512 OFFCURVE",
"172 587 CURVE SMOOTH"
);
},
{
closed = 1;
nodes = (
"700 656 OFFCURVE",
"743 709 OFFCURVE",
"815 710 CURVE SMOOTH",
"884 711 OFFCURVE",
"930 659 OFFCURVE",
"930 587 CURVE SMOOTH",
"930 512 OFFCURVE",
"885 455 OFFCURVE",
"816 455 CURVE SMOOTH",
"747 455 OFFCURVE",
"700 512 OFFCURVE",
"700 585 CURVE SMOOTH"
);
},
{
closed = 1;
nodes = (
"513 -170 LINE",
"587 -170 LINE",
"587 317 LINE",
"513 317 LINE"
);
},
{
closed = 1;
nodes = (
"378 -170 LINE",
"722 -170 LINE",
"722 -110 LINE",
"378 -110 LINE"
);
}
);
width = 1102;
}
);
},
{
glyphname = go;
lastChange = "2019-05-01 01:10:23 +0000";
layers = (
{
layerId = "DD177FA3-7F9B-4B3E-90D2-39BD46FC1B08";
paths = (
{
closed = 1;
nodes = (
"808 -185 OFFCURVE",
"925 -126 OFFCURVE",
"925 80 CURVE SMOOTH",
"925 511 LINE",
"850 511 LINE",
"852 103 LINE SMOOTH",
"853 -47 OFFCURVE",
"805 -114 OFFCURVE",
"698 -114 CURVE SMOOTH",
"598 -114 OFFCURVE",
"545 -30 OFFCURVE",
"546 74 CURVE SMOOTH",
"551 760 LINE",
"477 760 LINE",
"477 71 LINE SMOOTH",
"477 -124 OFFCURVE",
"605 -185 OFFCURVE",
"698 -185 CURVE SMOOTH"
);
},
{
closed = 1;
nodes = (
"176 0 LINE",
"174 216 LINE SMOOTH",
"172 389 OFFCURVE",
"220 454 OFFCURVE",
"329 454 CURVE SMOOTH",
"416 454 OFFCURVE",
"478 393 OFFCURVE",
"478 193 CURVE",
"511 293 LINE",
"511 445 OFFCURVE",
"436 524 OFFCURVE",
"329 524 CURVE SMOOTH",
"218 524 OFFCURVE",
"102 455 OFFCURVE",
"102 250 CURVE SMOOTH",
"102 0 LINE"
);
}
);
width = 1026;
}
);
},
{
glyphname = gi;
lastChange = "2019-05-01 01:10:23 +0000";
layers = (
{
layerId = "DD177FA3-7F9B-4B3E-90D2-39BD46FC1B08";
paths = (
{
closed = 1;
nodes = (
"100 732 OFFCURVE",
"100 552 OFFCURVE",
"100 318 CURVE SMOOTH",
"100 101 OFFCURVE",
"227 -13 OFFCURVE",
"389 -13 CURVE SMOOTH",
"553 -13 OFFCURVE",
"666 101 OFFCURVE",
"666 318 CURVE SMOOTH",
"666 547 OFFCURVE",
"669 740 OFFCURVE",
"669 873 CURVE",
"593 873 LINE",
"593 752 OFFCURVE",
"595 555 OFFCURVE",
"595 327 CURVE SMOOTH",
"595 139 OFFCURVE",
"509 59 OFFCURVE",
"392 59 CURVE SMOOTH",
"272 59 OFFCURVE",
"171 150 OFFCURVE",
"171 327 CURVE SMOOTH",
"171 561 OFFCURVE",
"176 743 OFFCURVE",
"176 873 CURVE",
"100 873 LINE"
);
},
{
closed = 1;
nodes = (
"754 511 OFFCURVE",
"862 571 OFFCURVE",
"862 698 CURVE SMOOTH",
"862 802 OFFCURVE",
"781 873 OFFCURVE",
"667 873 CURVE",
"667 808 LINE",
"752 805 OFFCURVE",
"784 762 OFFCURVE",
"784 694 CURVE SMOOTH",
"784 612 OFFCURVE",
"724 574 OFFCURVE",
"648 574 CURVE",
"648 511 LINE"
);
},
{
closed = 1;
nodes = (
"261 511 OFFCURVE",
"369 571 OFFCURVE",
"369 698 CURVE SMOOTH",
"369 802 OFFCURVE",
"288 873 OFFCURVE",
"174 873 CURVE",
"174 808 LINE",
"259 805 OFFCURVE",
"291 762 OFFCURVE",
"291 694 CURVE SMOOTH",
"291 612 OFFCURVE",
"231 574 OFFCURVE",
"155 574 CURVE",
"155 511 LINE"
);
}
);
width = 962;
}
);
},
{
glyphname = ga;
lastChange = "2019-05-01 01:10:24 +0000";
layers = (
{
layerId = "DD177FA3-7F9B-4B3E-90D2-39BD46FC1B08";
paths = (
{
closed = 1;
nodes = (
"413 461 OFFCURVE",
"510 542 OFFCURVE",
"510 672 CURVE SMOOTH",
"510 794 OFFCURVE",
"420 885 OFFCURVE",
"299 885 CURVE SMOOTH",
"179 885 OFFCURVE",
"88 795 OFFCURVE",
"88 672 CURVE SMOOTH",
"88 543 OFFCURVE",
"185 461 OFFCURVE",
"299 461 CURVE SMOOTH"
);
},
{
closed = 1;
nodes = (
"219 529 OFFCURVE",
"165 590 OFFCURVE",
"165 675 CURVE SMOOTH",
"165 760 OFFCURVE",
"216 819 OFFCURVE",
"299 817 CURVE SMOOTH",
"382 815 OFFCURVE",
"432 760 OFFCURVE",
"432 675 CURVE SMOOTH",
"432 590 OFFCURVE",
"378 529 OFFCURVE",
"299 529 CURVE SMOOTH"
);
},
{
closed = 1;
nodes = (
"280 -182 OFFCURVE",
"339 -105 OFFCURVE",
"339 -6 CURVE",
"339 506 LINE",
"265 506 LINE",
"265 -3 LINE",
"265 -86 OFFCURVE",
"225 -113 OFFCURVE",
"178 -113 CURVE SMOOTH",
"125 -113 OFFCURVE",
"96 -81 OFFCURVE",
"96 -4 CURVE",
"28 -27 LINE",
"28 -127 OFFCURVE",
"108 -182 OFFCURVE",
"173 -182 CURVE SMOOTH"
);
}
);
width = 560;
}
);
},
{
glyphname = fo;
lastChange = "2019-05-01 01:10:24 +0000";
layers = (
{
layerId = "DD177FA3-7F9B-4B3E-90D2-39BD46FC1B08";
paths = (
{
closed = 1;
nodes = (
"80 249 LINE",
"154 249 LINE",
"154 760 LINE",
"80 760 LINE"
);
},
{
closed = 1;
nodes = (
"349 249 LINE",
"423 249 LINE",
"423 760 LINE",
"349 760 LINE"
);
},
{
closed = 1;
nodes = (
"618 249 LINE",
"692 249 LINE",
"692 760 LINE",
"618 760 LINE"
);
},
{
closed = 1;
nodes = (
"887 250 LINE",
"961 250 LINE",
"961 760 LINE",
"887 760 LINE"
);
},
{
closed = 1;
nodes = (
"83 249 LINE",
"961 249 LINE",
"961 309 LINE",
"83 309 LINE"
);
}
);
width = 1041;
}
);
},
{
glyphname = fa;
lastChange = "2019-05-01 01:10:24 +0000";
layers = (
{
guideLines = (
{
position = "{80, 140}";
}
);
layerId = "DD177FA3-7F9B-4B3E-90D2-39BD46FC1B08";
paths = (
{
closed = 1;
nodes = (
"120 282 LINE",
"309 697 LINE",
"311 697 LINE",
"436 414 LINE",
"701 414 LINE",
"825 697 LINE",
"826 697 LINE",
"1012 300 LINE",
"1092 300 LINE",
"873 759 LINE",
"781 760 LINE",
"654 474 LINE",
"486 474 LINE",
"355 760 LINE",
"260 760 LINE",
"40 282 LINE"
);
},
{
closed = 1;
nodes = (
"924 247 LINE",
"1175 247 LINE",
"1175 307 LINE",
"924 307 LINE"
);
}
);
width = 1205;
}
);
},
{
glyphname = di;
lastChange = "2019-05-01 01:08:40 +0000";
layers = (
{
layerId = "DD177FA3-7F9B-4B3E-90D2-39BD46FC1B08";
paths = (
{
closed = 1;
nodes = (
"353 332 OFFCURVE",
"532 403 OFFCURVE",
"484 761 CURVE",
"408 761 LINE",
"456 442 OFFCURVE",
"314 397 OFFCURVE",
"143 397 CURVE",
"142 332 LINE"
);
},
{
closed = 1;
nodes = (
"462 -182 OFFCURVE",
"537 -92 OFFCURVE",
"537 8 CURVE",
"465 23 LINE",
"465 -54 OFFCURVE",
"410 -116 OFFCURVE",
"331 -116 CURVE SMOOTH",
"245 -116 OFFCURVE",
"201 -58 OFFCURVE",
"201 53 CURVE",
"201 761 LINE",
"127 761 LINE",
"127 27 LINE",
"127 -113 OFFCURVE",
"214 -182 OFFCURVE",
"325 -182 CURVE SMOOTH"
);
}
);
width = 600;
}
);
},
{
glyphname = de;
lastChange = "2019-05-01 01:06:33 +0000";
layers = (
{
layerId = "DD177FA3-7F9B-4B3E-90D2-39BD46FC1B08";
paths = (
{
closed = 1;
nodes = (
"100 318 LINE",
"100 82 OFFCURVE",
"225 -12 OFFCURVE",
"387 -12 CURVE SMOOTH",
"551 -12 OFFCURVE",
"674 82 OFFCURVE",
"674 318 CURVE",
"674 760 LINE",
"600 760 LINE",
"600 327 LINE",
"600 120 OFFCURVE",
"504 57 OFFCURVE",
"387 57 CURVE SMOOTH",
"267 57 OFFCURVE",
"174 131 OFFCURVE",
"174 327 CURVE",
"174 760 LINE",
"100 760 LINE"
);
},
{
closed = 1;
nodes = (
"174 442 LINE",
"387 302 LINE",
"600 442 LINE",
"600 523 LINE",
"387 383 LINE",
"174 523 LINE"
);
}
);
width = 774;
}
);
},
{
glyphname = bi;
lastChange = "2019-05-01 01:06:33 +0000";
layers = (
{
layerId = "DD177FA3-7F9B-4B3E-90D2-39BD46FC1B08";
paths = (
{
closed = 1;
nodes = (
"1018 0 LINE",
"1018 58 LINE",
"548 760 LINE",
"468 760 LINE",
"0 58 LINE",
"0 0 LINE"
);
},
{
closed = 1;
nodes = (
"484 674 LINE",
"472 643 LINE",
"472 56 LINE",
"89 56 LINE"
);
},
{
closed = 1;
nodes = (
"546 643 LINE",
"534 674 LINE",
"929 56 LINE",
"546 56 LINE"
);
}
);
width = 1018;
}
);
},
{
glyphname = ba;
lastChange = "2019-05-01 01:10:24 +0000";
layers = (
{
layerId = "DD177FA3-7F9B-4B3E-90D2-39BD46FC1B08";
paths = (
{
closed = 1;
nodes = (
"100 318 LINE",
"100 101 OFFCURVE",
"230 -13 OFFCURVE",
"392 -13 CURVE SMOOTH",
"556 -13 OFFCURVE",
"674 101 OFFCURVE",
"674 318 CURVE",
"674 617 LINE",
"600 617 LINE",
"600 327 LINE",
"600 139 OFFCURVE",
"512 59 OFFCURVE",
"395 59 CURVE SMOOTH",
"275 59 OFFCURVE",
"174 150 OFFCURVE",
"174 327 CURVE",
"174 617 LINE",
"100 617 LINE"
);
},
{
closed = 1;
nodes = (
"104 553 LINE",
"672 553 LINE",
"672 617 LINE",
"104 617 LINE"
);
},
{
closed = 1;
nodes = (
"185 571 LINE",
"259 571 LINE",
"359 872 LINE",
"285 872 LINE"
);
},
{
closed = 1;
nodes = (
"480 571 LINE",
"554 571 LINE",
"654 872 LINE",
"580 872 LINE"
);
}
);
width = 774;
}
);
},
{
glyphname = tja;
lastChange = "2019-05-01 01:10:24 +0000";
layers = (
{
layerId = "DD177FA3-7F9B-4B3E-90D2-39BD46FC1B08";
paths = (
{
closed = 1;
nodes = (
"416 163 OFFCURVE",
"510 243 OFFCURVE",
"510 367 CURVE SMOOTH",
"510 485 OFFCURVE",
"423 573 OFFCURVE",
"306 573 CURVE SMOOTH",
"190 573 OFFCURVE",
"102 486 OFFCURVE",
"102 367 CURVE SMOOTH",
"102 243 OFFCURVE",
"196 163 OFFCURVE",
"306 163 CURVE SMOOTH"
);
},
{
closed = 1;
nodes = (
"230 229 OFFCURVE",
"176 287 OFFCURVE",
"176 370 CURVE SMOOTH",
"176 453 OFFCURVE",
"226 509 OFFCURVE",
"306 507 CURVE SMOOTH",
"386 505 OFFCURVE",
"436 453 OFFCURVE",
"436 370 CURVE SMOOTH",
"436 287 OFFCURVE",
"382 229 OFFCURVE",
"306 229 CURVE SMOOTH"
);
},
{
closed = 1;
nodes = (
"270 525 LINE",
"344 525 LINE",
"344 872 LINE",
"270 872 LINE"
);
},
{
closed = 1;
nodes = (
"270 -170 LINE",
"344 -170 LINE",
"344 199 LINE",
"270 199 LINE"
);
}
);
width = 600;
}
);
},
{
glyphname = ju;
lastChange = "2019-05-01 01:10:24 +0000";
layers = (
{
layerId = "DD177FA3-7F9B-4B3E-90D2-39BD46FC1B08";
paths = (
{
closed = 1;
nodes = (
"393 -170 LINE",
"467 -170 LINE",
"467 852 LINE",
"393 852 LINE"
);
},
{
closed = 1;
nodes = (
"598 801 OFFCURVE",
"724 715 OFFCURVE",
"724 437 CURVE",
"795 437 LINE",
"795 760 OFFCURVE",
"637 872 OFFCURVE",
"428 872 CURVE SMOOTH",
"219 872 OFFCURVE",
"60 760 OFFCURVE",
"60 437 CURVE",
"131 437 LINE",
"131 715 OFFCURVE",
"260 801 OFFCURVE",
"429 801 CURVE SMOOTH"
);
}
);
width = 855;
}
);
},
{
glyphname = te;
lastChange = "2019-05-01 01:10:24 +0000";
layers = (
{
layerId = "DD177FA3-7F9B-4B3E-90D2-39BD46FC1B08";
paths = (
{
closed = 1;
nodes = (
"474 -182 OFFCURVE",
"545 -92 OFFCURVE",
"545 8 CURVE",
"477 23 LINE",
"477 -54 OFFCURVE",
"432 -113 OFFCURVE",
"369 -113 CURVE SMOOTH",
"290 -113 OFFCURVE",
"261 -66 OFFCURVE",
"261 14 CURVE",
"261 709 LINE",
"187 709 LINE",
"187 11 LINE",
"187 -92 OFFCURVE",
"247 -182 OFFCURVE",
"358 -182 CURVE SMOOTH"
);
},
{
closed = 1;
nodes = (
"64 698 LINE",
"413 698 LINE",
"413 760 LINE",
"64 760 LINE"
);
}
);
width = 578;
}
);
},
{
glyphname = te.ss01;
lastChange = "2019-05-01 01:10:24 +0000";
layers = (
{
layerId = "DD177FA3-7F9B-4B3E-90D2-39BD46FC1B08";
paths = (
{
closed = 1;
nodes = (
"50 105 OFFCURVE",
"144 1 OFFCURVE",
"296 1 CURVE",
"306 66 LINE",
"182 66 OFFCURVE",
"129 138 OFFCURVE",
"129 226 CURVE SMOOTH",
"129 332 OFFCURVE",
"190 381 OFFCURVE",
"317 381 CURVE",
"937 382 LINE",
"937 444 LINE",
"315 443 LINE",
"119 443 OFFCURVE",
"51 345 OFFCURVE",
"50 226 CURVE SMOOTH"
);
},
{
closed = 1;
nodes = (
"926 582 LINE",
"926 205 LINE",
"1000 205 LINE",
"1000 582 LINE"
);
}
);
width = 1050;
}
);
},
{
glyphname = we;
lastChange = "2019-05-01 01:10:24 +0000";
layers = (
{
layerId = "DD177FA3-7F9B-4B3E-90D2-39BD46FC1B08";
paths = (
{
closed = 1;
nodes = (
"100 187 OFFCURVE",
"302 103 OFFCURVE",
"551 103 CURVE SMOOTH",
"800 103 OFFCURVE",
"1002 206 OFFCURVE",
"1002 396 CURVE SMOOTH",
"1002 508 OFFCURVE",
"912 590 OFFCURVE",
"812 590 CURVE SMOOTH",
"706 590 OFFCURVE",
"629 501 OFFCURVE",
"629 405 CURVE SMOOTH",
"629 289 OFFCURVE",
"724 225 OFFCURVE",
"819 225 CURVE",
"774 191 OFFCURVE",
"670 173 OFFCURVE",
"553 173 CURVE SMOOTH",
"436 173 OFFCURVE",
"328 191 OFFCURVE",
"283 225 CURVE",
"379 225 OFFCURVE",
"473 289 OFFCURVE",
"473 405 CURVE SMOOTH",
"473 501 OFFCURVE",
"396 590 OFFCURVE",
"290 590 CURVE SMOOTH",
"190 590 OFFCURVE",
"100 508 OFFCURVE",
"100 396 CURVE SMOOTH"
);
},
{
closed = 1;
nodes = (
"172 476 OFFCURVE",
"218 528 OFFCURVE",
"287 527 CURVE SMOOTH",
"359 526 OFFCURVE",
"402 473 OFFCURVE",
"402 402 CURVE SMOOTH",
"402 329 OFFCURVE",
"355 272 OFFCURVE",
"286 272 CURVE SMOOTH",
"217 272 OFFCURVE",
"172 329 OFFCURVE",
"172 404 CURVE SMOOTH"
);
},
{
closed = 1;
nodes = (
"700 473 OFFCURVE",
"743 526 OFFCURVE",
"815 527 CURVE SMOOTH",
"884 528 OFFCURVE",
"930 476 OFFCURVE",
"930 404 CURVE SMOOTH",
"930 329 OFFCURVE",
"885 272 OFFCURVE",
"816 272 CURVE SMOOTH",
"747 272 OFFCURVE",
"700 329 OFFCURVE",
"700 402 CURVE SMOOTH"
);
}
);
width = 1102;
}
);
},
{
glyphname = ka.alt1;
lastChange = "2019-05-01 01:10:24 +0000";
layers = (
{
layerId = "DD177FA3-7F9B-4B3E-90D2-39BD46FC1B08";
paths = (
{
closed = 1;
nodes = (
"100 370 OFFCURVE",
"302 286 OFFCURVE",
"551 286 CURVE SMOOTH",
"800 286 OFFCURVE",
"1002 389 OFFCURVE",
"1002 579 CURVE SMOOTH",
"1002 691 OFFCURVE",
"912 773 OFFCURVE",
"812 773 CURVE SMOOTH",
"706 773 OFFCURVE",
"629 684 OFFCURVE",
"629 588 CURVE SMOOTH",
"629 472 OFFCURVE",
"724 408 OFFCURVE",
"819 408 CURVE",
"774 374 OFFCURVE",
"670 356 OFFCURVE",
"553 356 CURVE SMOOTH",
"436 356 OFFCURVE",
"328 374 OFFCURVE",
"283 408 CURVE",
"379 408 OFFCURVE",
"473 472 OFFCURVE",
"473 588 CURVE SMOOTH",
"473 684 OFFCURVE",
"396 773 OFFCURVE",
"290 773 CURVE SMOOTH",
"190 773 OFFCURVE",
"100 691 OFFCURVE",
"100 579 CURVE SMOOTH"
);
},
{
closed = 1;
nodes = (
"172 659 OFFCURVE",
"218 711 OFFCURVE",
"287 710 CURVE SMOOTH",
"359 709 OFFCURVE",
"402 656 OFFCURVE",
"402 585 CURVE SMOOTH",
"402 512 OFFCURVE",
"355 455 OFFCURVE",
"286 455 CURVE SMOOTH",
"217 455 OFFCURVE",
"172 512 OFFCURVE",
"172 587 CURVE SMOOTH"
);
},
{
closed = 1;
nodes = (
"700 656 OFFCURVE",
"743 709 OFFCURVE",
"815 710 CURVE SMOOTH",
"884 711 OFFCURVE",
"930 659 OFFCURVE",
"930 587 CURVE SMOOTH",
"930 512 OFFCURVE",
"885 455 OFFCURVE",
"816 455 CURVE SMOOTH",
"747 455 OFFCURVE",
"700 512 OFFCURVE",
"700 585 CURVE SMOOTH"
);
},
{
closed = 1;
nodes = (
"513 0 LINE",
"587 0 LINE",
"587 317 LINE",
"513 317 LINE"
);
},
{
closed = 1;
nodes = (
"378 0 LINE",
"722 0 LINE",
"722 60 LINE",
"378 60 LINE"
);
}
);
width = 1102;
}
);
},
{
glyphname = si;
lastChange = "2019-05-01 01:10:24 +0000";
layers = (
{
layerId = "DD177FA3-7F9B-4B3E-90D2-39BD46FC1B08";
paths = (
{
closed = 1;
nodes = (
"214 775 OFFCURVE",
"98 638 OFFCURVE",
"98 363 CURVE SMOOTH",
"98 330 OFFCURVE",
"99 295 OFFCURVE",
"102 257 CURVE",
"178 257 LINE",
"176 292 OFFCURVE",
"175 324 OFFCURVE",
"175 354 CURVE SMOOTH",
"175 607 OFFCURVE",
"265 707 OFFCURVE",
"422 707 CURVE SMOOTH",
"575 707 OFFCURVE",
"650 603 OFFCURVE",
"650 342 CURVE SMOOTH",
"650 316 OFFCURVE",
"649 287 OFFCURVE",
"648 257 CURVE",
"724 257 LINE",
"728 293 OFFCURVE",
"729 327 OFFCURVE",
"729 360 CURVE SMOOTH",
"729 636 OFFCURVE",
"619 775 OFFCURVE",
"422 775 CURVE SMOOTH"
);
},
{
closed = 1;
nodes = (
"892 -12 OFFCURVE",
"1001 125 OFFCURVE",
"1001 400 CURVE SMOOTH",
"1001 433 OFFCURVE",
"1000 473 OFFCURVE",
"996 511 CURVE",
"920 511 LINE",
"923 476 OFFCURVE",
"924 439 OFFCURVE",
"924 408 CURVE SMOOTH",
"924 156 OFFCURVE",
"843 55 OFFCURVE",
"685 55 CURVE SMOOTH",
"533 55 OFFCURVE",
"448 159 OFFCURVE",
"448 421 CURVE SMOOTH",
"448 447 OFFCURVE",
"449 480 OFFCURVE",
"450 511 CURVE",
"374 511 LINE",
"371 475 OFFCURVE",
"370 435 OFFCURVE",
"370 403 CURVE SMOOTH",
"370 127 OFFCURVE",
"487 -12 OFFCURVE",
"684 -12 CURVE SMOOTH"
);
}
);
width = 1099;
}
);
},
{
glyphname = de.alt;
lastChange = "2019-05-01 01:10:24 +0000";
layers = (
{
layerId = "DD177FA3-7F9B-4B3E-90D2-39BD46FC1B08";
paths = (
{
closed = 1;
nodes = (
"100 318 LINE",
"100 82 OFFCURVE",
"225 -12 OFFCURVE",
"387 -12 CURVE SMOOTH",
"551 -12 OFFCURVE",
"674 82 OFFCURVE",
"674 318 CURVE",
"674 760 LINE",
"600 760 LINE",
"600 327 LINE",
"600 120 OFFCURVE",
"504 57 OFFCURVE",
"387 57 CURVE SMOOTH",
"267 57 OFFCURVE",
"174 131 OFFCURVE",
"174 327 CURVE",
"174 760 LINE",
"100 760 LINE"
);
},
{
closed = 1;
nodes = (
"387 501 LINE",
"600 361 LINE",
"600 442 LINE",
"387 582 LINE",
"174 442 LINE",
"174 361 LINE"
);
}
);
width = 774;
}
);
},
{
glyphname = go.alt;
lastChange = "2019-05-01 01:10:24 +0000";
layers = (
{
layerId = "DD177FA3-7F9B-4B3E-90D2-39BD46FC1B08";
paths = (
{
closed = 1;
nodes = (
"174 0 LINE",
"174 205 LINE SMOOTH",
"174 349 OFFCURVE",
"228 416 OFFCURVE",
"327 416 CURVE SMOOTH",
"431 416 OFFCURVE",
"467 354 OFFCURVE",
"467 206 CURVE",
"467 60 OFFCURVE",
"555 -42 OFFCURVE",
"694 -42 CURVE SMOOTH",
"829 -42 OFFCURVE",
"924 35 OFFCURVE",
"924 235 CURVE SMOOTH",
"924 471 LINE",
"850 471 LINE",
"853 242 LINE SMOOTH",
"855 78 OFFCURVE",
"796 26 OFFCURVE",
"700 26 CURVE SMOOTH",
"602 26 OFFCURVE",
"541 82 OFFCURVE",
"541 249 CURVE",
"541 414 OFFCURVE",
"467 482 OFFCURVE",
"332 482 CURVE SMOOTH",
"174 482 OFFCURVE",
"100 375 OFFCURVE",
"100 233 CURVE SMOOTH",
"100 0 LINE"
);
},
{
closed = 1;
nodes = (
"296 434 LINE",
"362 434 LINE",
"362 760 LINE",
"296 760 LINE"
);
}
);
width = 1024;
}
);
},
